<?xml version="1.0" standalone="no"?>
<!DOCTYPE svg PUBLIC "-//W3C//DTD SVG 20010904//EN"
 "http://www.w3.org/TR/2001/REC-SVG-20010904/DTD/svg10.dtd">
<svg version="1.0" xmlns="http://www.w3.org/2000/svg"
 width="411.000000pt" height="411.000000pt" viewBox="0 0 411.000000 411.000000"
 preserveAspectRatio="xMidYMid meet">
<metadata>
Created by potrace 1.11, written by Peter Selinger 2001-2013
</metadata>
<g transform="translate(0.000000,411.000000) scale(0.100000,-0.100000)"
fill="#000000" stroke="none">
<path d="M975 3931 c-22 -5 -58 -12 -80 -15 -386 -59 -690 -285 -815 -608
-164 -424 -8 -934 369 -1206 93 -68 248 -132 356 -148 61 -9 206 -10 257 -1
35 6 52 10 149 35 60 15 182 78 249 128 144 109 261 310 298 510 62 346 -134
688 -458 800 -217 76 -470 7 -648 -175 -87 -88 -146 -191 -167 -291 -23 -109
6 -252 73 -356 86 -133 249 -215 428 -216 204 -1 334 114 334 296 0 114 -71
179 -197 180 -61 1 -64 0 -105 -41 l-42 -42 53 14 c56 15 88 12 131 -10 41
-21 54 -43 53 -90 -5 -160 -157 -255 -315 -195 -187 70 -273 353 -167 550 36
67 95 113 187 148 57 22 84 25 187 26 109 1 127 -2 198 -28 106 -39 170 -98
226 -208 145 -290 92 -563 -143 -742 -275 -209 -674 -182 -907 61 -95 99 -153
204 -206 369 -24 78 -27 104 -27 219 0 105 4 145 22 210 75 262 215 432 456
550 82 41 187 78 256 91 14 2 39 7 55 11 64 13 85 15 240 18 176 4 294 -9 460
-50 194 -48 467 -163 533 -224 43 -40 57 -39 36 1 -95 184 -479 362 -894 414
-25 3 -56 8 -70 10 -58 9 -328 12 -365 5z"/>
<path d="M2937 3759 c-306 -62 -549 -242 -681 -505 -90 -180 -109 -319 -71
-523 21 -118 132 -310 232 -402 105 -95 242 -171 363 -201 73 -17 214 -19 293
-3 97 20 223 84 293 148 59 53 140 167 163 228 7 19 17 43 22 54 18 40 39 162
39 232 0 165 -58 305 -170 411 -46 44 -181 117 -235 128 -212 42 -418 -49
-540 -240 -48 -75 -64 -130 -61 -211 4 -134 85 -221 228 -243 88 -14 139 12
177 88 19 37 29 150 14 150 -5 0 -17 -22 -27 -50 -36 -100 -81 -127 -158 -92
-54 24 -82 55 -101 112 -49 148 66 315 224 325 157 9 363 -105 428 -238 78
-158 54 -316 -69 -449 -189 -206 -482 -236 -715 -72 -106 74 -169 153 -221
279 -26 65 -28 80 -28 200 -1 116 2 138 27 208 48 138 133 256 251 350 218
172 542 188 816 40 384 -208 551 -654 404 -1075 -33 -93 -129 -280 -201 -388
-195 -294 -442 -509 -685 -595 -117 -41 -104 -51 37 -29 125 20 314 113 465
229 53 41 203 185 245 236 100 120 205 278 267 404 43 85 93 210 103 251 2 10
12 48 20 84 22 85 26 265 9 363 -52 295 -261 568 -541 707 -205 101 -412 131
-616 89z"/>
<path d="M1840 2036 c-255 -63 -459 -222 -558 -439 -159 -343 60 -806 425
-902 69 -19 207 -18 272 1 291 87 462 365 386 630 -35 123 -127 249 -212 289
-156 75 -369 -35 -365 -188 1 -48 23 -89 73 -139 36 -37 54 -48 78 -48 17 0
31 2 31 4 0 3 -17 15 -39 27 -51 28 -85 88 -77 134 13 69 95 133 155 121 14
-3 38 -8 52 -10 35 -6 108 -52 139 -88 14 -16 32 -53 41 -81 62 -197 -129
-437 -368 -463 -124 -13 -249 49 -327 160 -69 100 -101 194 -105 316 -6 170
66 318 209 432 307 244 802 72 964 -334 98 -248 18 -564 -199 -783 -89 -89
-164 -139 -279 -185 -157 -63 -305 -76 -497 -45 -57 10 -168 49 -244 87 -183
91 -324 223 -460 428 -124 187 -219 405 -241 555 -3 17 -7 37 -10 45 -21 59
-44 217 -44 298 0 107 -9 110 -33 12 -13 -50 -16 -99 -13 -210 3 -80 7 -161
11 -180 79 -427 356 -891 674 -1130 111 -84 278 -157 401 -176 219 -35 491 42
727 205 197 136 305 276 364 474 138 462 -31 908 -417 1101 -157 79 -382 114
-514 82z"/>
</g>
</svg>
